<svg width="230" height="58" viewBox="0 0 230 58" fill="none" xmlns="http://www.w3.org/2000/svg">
<path d="M14.5714 0C21.8571 14.5 0 21.75 0 36.25C0 50.75 14.5714 58 14.5714 58C7.43143 43.645 29.1429 36.25 29.1429 21.75C29.1429 7.25 14.5714 0 14.5714 0ZM36.4286 21.75C43.7143 36.25 21.8571 43.5 21.8571 58H43.7143C46.6286 58 51 54.375 51 43.5C51 29 36.4286 21.75 36.4286 21.75Z" fill="#F39C12"/>
<path d="M79.0341 46V11.0909H93.0114C95.5795 11.0909 97.7216 11.4716 99.4375 12.233C101.153 12.9943 102.443 14.0511 103.307 15.4034C104.17 16.7443 104.602 18.2898 104.602 20.0398C104.602 21.4034 104.33 22.6023 103.784 23.6364C103.239 24.6591 102.489 25.5 101.534 26.1591C100.591 26.8068 99.5114 27.267 98.2955 27.5398V27.8807C99.625 27.9375 100.869 28.3125 102.028 29.0057C103.199 29.6989 104.148 30.6705 104.875 31.9205C105.602 33.1591 105.966 34.6364 105.966 36.3523C105.966 38.2045 105.506 39.858 104.585 41.3125C103.676 42.7557 102.33 43.8977 100.545 44.7386C98.7614 45.5795 96.5625 46 93.9489 46H79.0341ZM86.4148 39.9659H92.4318C94.4886 39.9659 95.9886 39.5739 96.9318 38.7898C97.875 37.9943 98.3466 36.9375 98.3466 35.6193C98.3466 34.6534 98.1136 33.8011 97.6477 33.0625C97.1818 32.3239 96.517 31.7443 95.6534 31.3239C94.8011 30.9034 93.7841 30.6932 92.6023 30.6932H86.4148V39.9659ZM86.4148 25.6989H91.8864C92.8977 25.6989 93.7955 25.5227 94.5795 25.1705C95.375 24.8068 96 24.2955 96.4545 23.6364C96.9205 22.9773 97.1534 22.1875 97.1534 21.267C97.1534 20.0057 96.7045 18.9886 95.8068 18.2159C94.9205 17.4432 93.6591 17.0568 92.0227 17.0568H86.4148V25.6989ZM122.462 46.5114C119.814 46.5114 117.524 45.9489 115.592 44.8239C113.672 43.6875 112.189 42.108 111.143 40.0852C110.098 38.0511 109.575 35.6932 109.575 33.0114C109.575 30.3068 110.098 27.9432 111.143 25.9205C112.189 23.8864 113.672 22.3068 115.592 21.1818C117.524 20.0455 119.814 19.4773 122.462 19.4773C125.109 19.4773 127.393 20.0455 129.314 21.1818C131.246 22.3068 132.734 23.8864 133.78 25.9205C134.825 27.9432 135.348 30.3068 135.348 33.0114C135.348 35.6932 134.825 38.0511 133.78 40.0852C132.734 42.108 131.246 43.6875 129.314 44.8239C127.393 45.9489 125.109 46.5114 122.462 46.5114ZM122.496 40.8864C123.7 40.8864 124.706 40.5455 125.513 39.8636C126.32 39.1705 126.928 38.2273 127.337 37.0341C127.757 35.8409 127.967 34.483 127.967 32.9602C127.967 31.4375 127.757 30.0795 127.337 28.8864C126.928 27.6932 126.32 26.75 125.513 26.0568C124.706 25.3636 123.7 25.017 122.496 25.017C121.28 25.017 120.257 25.3636 119.428 26.0568C118.609 26.75 117.99 27.6932 117.57 28.8864C117.161 30.0795 116.956 31.4375 116.956 32.9602C116.956 34.483 117.161 35.8409 117.57 37.0341C117.99 38.2273 118.609 39.1705 119.428 39.8636C120.257 40.5455 121.28 40.8864 122.496 40.8864ZM151.899 46.5114C149.251 46.5114 146.962 45.9489 145.03 44.8239C143.109 43.6875 141.626 42.108 140.581 40.0852C139.536 38.0511 139.013 35.6932 139.013 33.0114C139.013 30.3068 139.536 27.9432 140.581 25.9205C141.626 23.8864 143.109 22.3068 145.03 21.1818C146.962 20.0455 149.251 19.4773 151.899 19.4773C154.547 19.4773 156.831 20.0455 158.751 21.1818C160.683 22.3068 162.172 23.8864 163.217 25.9205C164.263 27.9432 164.786 30.3068 164.786 33.0114C164.786 35.6932 164.263 38.0511 163.217 40.0852C162.172 42.108 160.683 43.6875 158.751 44.8239C156.831 45.9489 154.547 46.5114 151.899 46.5114ZM151.933 40.8864C153.138 40.8864 154.143 40.5455 154.95 39.8636C155.757 39.1705 156.365 38.2273 156.774 37.0341C157.195 35.8409 157.405 34.483 157.405 32.9602C157.405 31.4375 157.195 30.0795 156.774 28.8864C156.365 27.6932 155.757 26.75 154.95 26.0568C154.143 25.3636 153.138 25.017 151.933 25.017C150.717 25.017 149.695 25.3636 148.865 26.0568C148.047 26.75 147.428 27.6932 147.007 28.8864C146.598 30.0795 146.393 31.4375 146.393 32.9602C146.393 34.483 146.598 35.8409 147.007 37.0341C147.428 38.2273 148.047 39.1705 148.865 39.8636C149.695 40.5455 150.717 40.8864 151.933 40.8864ZM176.087 38.4659L176.104 29.7557H177.161L185.547 19.8182H193.882L182.615 32.9773H180.893L176.087 38.4659ZM169.507 46V11.0909H176.768V46H169.507ZM185.871 46L178.166 34.5966L183.007 29.4659L194.376 46H185.871ZM203.53 11.0909V14.7727C203.53 15.8182 203.325 16.8864 202.916 17.9773C202.518 19.0568 201.984 20.0795 201.314 21.0455C200.643 22 199.911 22.8125 199.115 23.483L195.911 21.5909C196.479 20.6932 196.979 19.6989 197.411 18.608C197.854 17.517 198.075 16.25 198.075 14.8068V11.0909H203.53ZM226.869 27.2841L220.222 27.6932C220.108 27.125 219.864 26.6136 219.489 26.1591C219.114 25.6932 218.619 25.3239 218.006 25.0511C217.403 24.767 216.682 24.625 215.841 24.625C214.716 24.625 213.767 24.8636 212.994 25.3409C212.222 25.8068 211.835 26.4318 211.835 27.2159C211.835 27.8409 212.085 28.3693 212.585 28.8011C213.085 29.233 213.943 29.5795 215.159 29.8409L219.898 30.7955C222.443 31.3182 224.341 32.1591 225.591 33.3182C226.841 34.4773 227.466 36 227.466 37.8864C227.466 39.6023 226.96 41.108 225.949 42.4034C224.949 43.6989 223.574 44.7102 221.824 45.4375C220.085 46.1534 218.08 46.5114 215.807 46.5114C212.341 46.5114 209.58 45.7898 207.523 44.3466C205.477 42.892 204.278 40.9148 203.926 38.4148L211.068 38.0398C211.284 39.0966 211.807 39.9034 212.636 40.4602C213.466 41.0057 214.528 41.2784 215.824 41.2784C217.097 41.2784 218.119 41.0341 218.892 40.5455C219.676 40.0455 220.074 39.4034 220.085 38.6193C220.074 37.9602 219.795 37.4205 219.25 37C218.705 36.5682 217.864 36.2386 216.727 36.0114L212.193 35.108C209.636 34.5966 207.733 33.7102 206.483 32.4489C205.244 31.1875 204.625 29.5795 204.625 27.625C204.625 25.9432 205.08 24.4943 205.989 23.2784C206.909 22.0625 208.199 21.125 209.858 20.4659C211.528 19.8068 213.483 19.4773 215.722 19.4773C219.028 19.4773 221.631 20.1761 223.528 21.5739C225.438 22.9716 226.551 24.875 226.869 27.2841Z" fill="#F39C12"/>
</svg>
